<svg xmlns="http://www.w3.org/2000/svg" viewBox="0 0 1600 1000" width="1600" height="1000" preserveAspectRatio="xMidYMid slice">
  <defs>
    <linearGradient id="bg2" x1="0%" y1="0%" x2="100%" y2="100%">
      <stop offset="0%" stop-color="#1F1813"/>
      <stop offset="50%" stop-color="#4A3326"/>
      <stop offset="100%" stop-color="#825236"/>
    </linearGradient>
    <radialGradient id="glow2" cx="70%" cy="40%" r="60%">
      <stop offset="0%" stop-color="#F4ECDE" stop-opacity="0.35"/>
      <stop offset="50%" stop-color="#C8A55C" stop-opacity="0.08"/>
      <stop offset="100%" stop-color="#C8A55C" stop-opacity="0"/>
    </radialGradient>
    <filter id="noise2" x="0%" y="0%" width="100%" height="100%">
      <feTurbulence type="fractalNoise" baseFrequency="0.9" numOctaves="2" seed="11"/>
      <feColorMatrix values="0 0 0 0 1  0 0 0 0 0.9  0 0 0 0 0.74  0 0 0 0.13 0"/>
      <feComposite in2="SourceGraphic" operator="in"/>
    </filter>
  </defs>
  <rect width="1600" height="1000" fill="url(#bg2)"/>
  <rect width="1600" height="1000" fill="url(#glow2)"/>
  <!-- abstract: scissor lines + comb -->
  <g opacity="0.28" stroke="#0B0805" stroke-width="3" fill="none">
    <path d="M 400 200 Q 600 350 750 500 Q 900 650 1200 800"/>
    <path d="M 420 180 Q 620 360 750 510 Q 880 660 1180 820"/>
    <circle cx="380" cy="200" r="40"/>
    <circle cx="380" cy="280" r="40"/>
  </g>
  <g opacity="0.18" fill="#0B0805">
    <rect x="200" y="700" width="300" height="14" rx="4"/>
    <g>
      <rect x="200" y="714" width="3" height="40"/>
      <rect x="220" y="714" width="3" height="40"/>
      <rect x="240" y="714" width="3" height="40"/>
      <rect x="260" y="714" width="3" height="40"/>
      <rect x="280" y="714" width="3" height="40"/>
      <rect x="300" y="714" width="3" height="40"/>
      <rect x="320" y="714" width="3" height="40"/>
      <rect x="340" y="714" width="3" height="40"/>
      <rect x="360" y="714" width="3" height="40"/>
      <rect x="380" y="714" width="3" height="40"/>
      <rect x="400" y="714" width="3" height="40"/>
      <rect x="420" y="714" width="3" height="40"/>
      <rect x="440" y="714" width="3" height="40"/>
      <rect x="460" y="714" width="3" height="40"/>
      <rect x="480" y="714" width="3" height="40"/>
    </g>
  </g>
  <rect width="1600" height="1000" filter="url(#noise2)" opacity="0.5"/>
</svg>
